STARTFONT 2.1
FONT -Adobe-ITC Bookman-Demi-I-Normal--33-240-100-100-P-198-ISO8859-1
SIZE 24 100 100
FONTBOUNDINGBOX 55 34 -10 -7

STARTPROPERTIES 26
_DEC_DEVICE_FONTNAMES "PS=Bookman-DemiItalic"
FONTNAME_REGISTRY ""
FAMILY_NAME "ITC Bookman"
FOUNDRY "Adobe"
WEIGHT_NAME "Demi"
SLANT "I"
SETWIDTH_NAME "Normal"
ADD_STYLE_NAME ""
PIXEL_SIZE 33
POINT_SIZE 240
RESOLUTION_X 100
RESOLUTION_Y 100
SPACING "P"
AVERAGE_WIDTH 198
CHARSET_REGISTRY "ISO8859"
CHARSET_ENCODING "1"
CHARSET_COLLECTIONS "ASCII ISO8859-1 ADOBE-STANDARD"
FULL_NAME "ITC Bookman Demi Italic"
COPYRIGHT "Copyright (c) 1991 Adobe Systems, Inc."
CAP_HEIGHT 23
X_HEIGHT 17
WEIGHT 10
QUAD_WIDTH 23
DEFAULT_CHAR 0
FONT_DESCENT 7
FONT_ASCENT 27
ENDPROPERTIES

CHARS 190

STARTCHAR space
ENCODING 32
SWIDTH 340 0
DWIDTH 11 0
BBX 1 1 0 0
BITMAP
00
ENDCHAR

STARTCHAR exclam
ENCODING 33
SWIDTH 320 0
DWIDTH 11 0
BBX 9 23 2 0
BITMAP
0F80
0F80
1F80
1F80
1F80
1F80
1F00
1F00
1F00
1E00
1E00
1E00
1C00
1C00
1C00
0000
0000
3800
7C00
FC00
FC00
F800
7000
ENDCHAR

STARTCHAR quotedbl
ENCODING 34
SWIDTH 380 0
DWIDTH 13 0
BBX 12 11 3 12
BITMAP
70E0
F9F0
F9F0
F9F0
F1E0
F1E0
E1C0
E1C0
C180
C180
8100
ENDCHAR

STARTCHAR numbersign
ENCODING 35
SWIDTH 680 0
DWIDTH 23 0
BBX 16 23 5 0
BITMAP
071C
071C
071C
071C
071C
0738
0F38
7FFF
7FFF
7FFF
0E38
0E38
0E70
FFFE
FFFE
FFFE
1C70
1C70
1C70
1CE0
3CE0
38E0
38E0
ENDCHAR

STARTCHAR dollar
ENCODING 36
SWIDTH 680 0
DWIDTH 22 0
BBX 22 31 1 -5
BITMAP
000E00
000E00
000E00
000E00
007F80
01FFF0
07FFF8
0FC1FC
0F80FC
1F8078
1F8000
1FE000
0FFC00
0FFF00
07FFE0
01FFF0
007FF8
000FF8
0003F8
3001F8
FC01F8
FE03F0
FF07F0
7FFFE0
3FFF80
07FE00
00E000
00E000
00E000
01E000
01E000
ENDCHAR

STARTCHAR percent
ENCODING 37
SWIDTH 880 0
DWIDTH 29 0
BBX 27 23 3 0
BITMAP
03C00000
1FF00700
3FF00E00
7C781C00
78781800
F0783800
F0787000
F0F8E000
F9F1C000
7FE38000
3F870000
040E0600
001C3FC0
00387FC0
0070F1E0
00E1E1E0
01C1E1E0
03C1E1E0
0781E3C0
0F01E3C0
0E00FF80
1C00FF00
00003C00
ENDCHAR

STARTCHAR ampersand
ENCODING 38
SWIDTH 980 0
DWIDTH 33 0
BBX 33 23 1 0
BITMAP
007F800000
01FFE00000
03F3E00000
07E1F0F000
07E1F1F000
07C1F1F800
07C3E1F800
07E7C0F800
03FF807800
01FE007000
0FFF807000
3FFFC0F000
7E1FE0E000
7C0FE1E000
FC07F3C000
FC07F78300
FC03FF0780
FE01FE0F80
FF01FE0F80
7FC3FF9F00
3FFFFFFE00
1FFF1FFC00
07FC07F000
ENDCHAR

STARTCHAR quoteright
ENCODING 39
SWIDTH 320 0
DWIDTH 11 0
BBX 6 9 4 14
BITMAP
38
7C
FC
FC
FC
38
30
60
C0
ENDCHAR

STARTCHAR parenleft
ENCODING 40
SWIDTH 260 0
DWIDTH 9 0
BBX 12 28 0 -4
BITMAP
00F0
03F0
07E0
0FC0
0F80
1F00
1F00
3F00
3E00
3E00
3E00
7E00
7C00
7C00
7C00
7C00
FC00
FC00
F800
F800
F800
F800
F800
F800
7C00
7E00
3E00
1E00
ENDCHAR

STARTCHAR parenright
ENCODING 41
SWIDTH 260 0
DWIDTH 9 0
BBX 12 28 -2 -4
BITMAP
0780
07E0
07E0
01F0
01F0
01F0
01F0
01F0
01F0
03F0
03F0
03E0
03E0
03E0
03E0
07E0
07E0
07C0
07C0
07C0
0FC0
0F80
0F80
1F00
3F00
7E00
FC00
F000
ENDCHAR

STARTCHAR asterisk
ENCODING 42
SWIDTH 460 0
DWIDTH 15 0
BBX 13 12 4 11
BITMAP
1CE0
1CE0
1CE0
0DC0
0700
FFF8
FFF8
0700
1D80
1DC0
19C0
18C0
ENDCHAR

STARTCHAR plus
ENCODING 43
SWIDTH 600 0
DWIDTH 20 0
BBX 16 17 3 0
BITMAP
03C0
03C0
03C0
03C0
03C0
03C0
FFFF
FFFF
FFFF
FFFF
03C0
03C0
03C0
03C0
03C0
03C0
03C0
ENDCHAR

STARTCHAR comma
ENCODING 44
SWIDTH 340 0
DWIDTH 11 0
BBX 7 10 1 -4
BITMAP
3C
7E
FE
FE
FC
7C
38
38
70
60
ENDCHAR

STARTCHAR minus
ENCODING 45
SWIDTH 600 0
DWIDTH 20 0
BBX 17 4 3 7
BITMAP
FFFF80
FFFF80
FFFF80
FFFF80
ENDCHAR

STARTCHAR period
ENCODING 46
SWIDTH 340 0
DWIDTH 11 0
BBX 6 6 2 0
BITMAP
38
7C
FC
FC
F8
70
ENDCHAR

STARTCHAR slash
ENCODING 47
SWIDTH 360 0
DWIDTH 12 0
BBX 17 28 -1 -3
BITMAP
000F80
000F80
001F00
001F00
003E00
003E00
003C00
007C00
007800
00F800
00F000
01F000
01F000
03E000
03E000
07C000
07C000
078000
0F8000
0F0000
1F0000
1E0000
3E0000
3E0000
7C0000
7C0000
F80000
F80000
ENDCHAR

STARTCHAR zero
ENCODING 48
SWIDTH 680 0
DWIDTH 22 0
BBX 21 23 3 0
BITMAP
007F00
01FFC0
07FFE0
0FC3F0
1F83F0
1F01F0
3F01F8
3E01F8
7E01F8
7E01F8
7E01F8
7C01F8
FC03F0
FC03F0
FC03F0
FC03E0
FC07E0
7C07C0
7E0FC0
3E1F80
3FFF00
1FFC00
03F000
ENDCHAR

STARTCHAR one
ENCODING 49
SWIDTH 680 0
DWIDTH 22 0
BBX 15 23 4 0
BITMAP
003C
0FFC
0FFC
1FFC
01F8
01F8
01F8
01F8
01F8
03F0
03F0
03F0
03F0
03F0
03F0
07E0
07E0
07E0
07E0
0FE0
FFFE
FFFE
FFFC
ENDCHAR

STARTCHAR two
ENCODING 50
SWIDTH 680 0
DWIDTH 22 0
BBX 19 23 3 0
BITMAP
00FC00
03FF80
0FFFC0
1F0FE0
3E07E0
3E07E0
3E07E0
3E07E0
3E0FE0
1C0FC0
001FC0
003F80
003F00
007E00
01F800
03F000
07C0E0
1F81C0
3E07C0
FFFFC0
FFFF80
FFFF80
FFFF00
ENDCHAR

STARTCHAR three
ENCODING 51
SWIDTH 680 0
DWIDTH 22 0
BBX 21 23 2 0
BITMAP
00FF00
03FFC0
0FFFF0
1F83F0
1F03F8
1F03F8
1F03F8
1F03F0
0007F0
00FFE0
00FF80
00FFC0
000FE0
0007F0
3007F0
7C03F0
FC07F0
FC07F0
F80FE0
FC1FC0
7FFF80
3FFE00
07F800
ENDCHAR

STARTCHAR four
ENCODING 52
SWIDTH 680 0
DWIDTH 22 0
BBX 21 23 2 0
BITMAP
0007E0
000FE0
001FE0
003FE0
007FE0
00F7C0
01E7C0
01EFC0
03CFC0
078FC0
0F0FC0
1E0F80
3C0F80
781F80
FFFFF8
FFFFF8
7FFFF0
001F00
003F00
003F80
01FFE0
01FFC0
01FFC0
ENDCHAR

STARTCHAR five
ENCODING 53
SWIDTH 680 0
DWIDTH 22 0
BBX 19 23 3 0
BITMAP
0FFFE0
0FFFC0
0FFFC0
0FFFC0
0E0000
1E0000
1C0000
1CFE00
1FFF00
1FFF80
3E1FC0
3C0FC0
180FE0
000FE0
000FE0
780FE0
FC0FC0
FC1FC0
F81F80
FC7F00
7FFE00
3FFC00
0FE000
ENDCHAR

STARTCHAR six
ENCODING 54
SWIDTH 680 0
DWIDTH 22 0
BBX 21 23 3 0
BITMAP
007F00
01FFE0
07FFF0
0FC1F0
1F81F8
1F01F0
3F00E0
3E0000
7E7E00
7DFFC0
7FFFE0
7F0FE0
FE03F0
FE03F0
FC03F0
FC03F0
FC03F0
7C07E0
7C07E0
7E0FC0
3FFF80
1FFE00
03F800
ENDCHAR

STARTCHAR seven
ENCODING 55
SWIDTH 680 0
DWIDTH 22 0
BBX 21 23 4 0
BITMAP
3FFFF8
3FFFF8
3FFFF8
7FFFF0
7C00F0
7801E0
F003C0
600780
000F80
001F00
001F00
003E00
007C00
007C00
00F800
01F800
01F800
03F000
03F000
07F000
07F000
07E000
0FE000
ENDCHAR

STARTCHAR eight
ENCODING 56
SWIDTH 680 0
DWIDTH 22 0
BBX 20 23 3 0
BITMAP
00FE00
03FFC0
07FFE0
0FC3F0
1F01F0
1F00F0
3F80F0
3FC1F0
3FF7E0
1FFFC0
0FFF80
0FFFC0
3FFFE0
7C3FF0
F80FF0
F803F0
F003F0
F803E0
F803E0
FC0FC0
7FFF80
3FFE00
07F800
ENDCHAR

STARTCHAR nine
ENCODING 57
SWIDTH 680 0
DWIDTH 22 0
BBX 21 23 3 0
BITMAP
007F00
03FFC0
07FFE0
1FC3F0
1F81F0
3F01F0
3E01F8
7E01F8
7E01F8
7E03F8
7E07F8
3F0FF8
3FFFF0
1FFFF0
07F3F0
0003E0
0007E0
F807C0
F80F80
F83F00
FFFE00
7FFC00
1FE000
ENDCHAR

STARTCHAR colon
ENCODING 58
SWIDTH 340 0
DWIDTH 11 0
BBX 8 17 2 0
BITMAP
0E
1F
3F
3F
3E
1C
00
00
00
00
00
38
7C
FC
FC
F8
70
ENDCHAR

STARTCHAR semicolon
ENCODING 59
SWIDTH 340 0
DWIDTH 11 0
BBX 9 21 1 -4
BITMAP
0F00
1F00
3F80
3F00
3F00
1E00
0000
0000
0000
0000
0000
3C00
7E00
FE00
FE00
FC00
7C00
3800
3800
7000
6000
ENDCHAR

STARTCHAR less
ENCODING 60
SWIDTH 620 0
DWIDTH 21 0
BBX 17 17 3 0
BITMAP
000380
000F80
007F80
01FF00
07FC00
1FF000
FF8000
FE0000
F80000
FF0000
7FC000
0FF800
03FE00
007F80
001F80
000780
000080
ENDCHAR

STARTCHAR equal
ENCODING 61
SWIDTH 600 0
DWIDTH 20 0
BBX 17 10 3 4
BITMAP
FFFF80
FFFF80
FFFF80
FFFF80
000000
000000
FFFF80
FFFF80
FFFF80
FFFF80
ENDCHAR

STARTCHAR greater
ENCODING 62
SWIDTH 620 0
DWIDTH 21 0
BBX 17 17 3 0
BITMAP
E00000
F80000
FF0000
7FC000
1FF000
07FC00
00FF80
003F80
000F80
007F80
01FF00
0FF800
3FE000
FF0000
FC0000
F00000
800000
ENDCHAR

STARTCHAR question
ENCODING 63
SWIDTH 620 0
DWIDTH 20 0
BBX 17 23 3 0
BITMAP
03F000
1FFE00
3FFF00
7C3F80
F81F80
F81F80
F81F80
F81F80
701F80
003F00
007E00
01FC00
01F800
03E000
03C000
038000
000000
038000
07C000
0FC000
0FC000
0F8000
070000
ENDCHAR

STARTCHAR at
ENCODING 64
SWIDTH 780 0
DWIDTH 26 0
BBX 23 23 3 0
BITMAP
007C00
03FFC0
07FFE0
0F00F8
1C003C
38381C
70FFEE
71E3CE
F3E3CE
E3C3C6
E78386
E7878E
E7878E
E7070C
F70F1C
770F38
77BFF0
39F7CE
3C001C
1F0078
07FFF0
03FFC0
007E00
ENDCHAR

STARTCHAR A
ENCODING 65
SWIDTH 720 0
DWIDTH 24 0
BBX 26 23 -1 0
BITMAP
0007E000
0007E000
000FF000
000FF000
001FF000
001DF000
003DF800
0079F800
0079F800
00F1F800
00E0F800
01E0FC00
01FFFC00
03FFFC00
03FFFC00
0780FE00
0F007E00
0F007E00
1E007E00
3E007F00
FF83FFC0
FF83FFC0
FF83FFC0
ENDCHAR

STARTCHAR B
ENCODING 66
SWIDTH 720 0
DWIDTH 24 0
BBX 25 23 -1 0
BITMAP
1FFFF800
1FFFFE00
1FFFFF00
07F03F80
07F01F80
07E01F80
07E01F80
07E03F00
07E0FE00
07FFFC00
0FFFF000
0FFFFC00
0FC0FE00
0FC07F00
0FC03F00
0FC03F00
1F807F00
1F807F00
1F80FE00
3F83FE00
FFFFFC00
FFFFF000
FFFFC000
ENDCHAR

STARTCHAR C
ENCODING 67
SWIDTH 700 0
DWIDTH 22 0
BBX 22 23 0 0
BITMAP
007F00
01FFF8
07FFF8
0FE1F8
1FC07C
3F803C
3F003C
7F001C
7E001C
FE0000
FE0000
FC0000
FC0000
FC0000
FC0000
FC0000
FE003C
7E0078
7F00F8
3F83F0
1FFFC0
0FFF80
01FE00
ENDCHAR

STARTCHAR D
ENCODING 68
SWIDTH 760 0
DWIDTH 24 0
BBX 26 23 -1 0
BITMAP
1FFFF000
1FFFFC00
1FFFFE00
07F07F00
07E01F80
07E01F80
07E00FC0
07E00FC0
07E00FC0
07C00FC0
0FC00FC0
0FC00FC0
0FC00FC0
0FC01F80
0FC01F80
0F803F80
1F803F00
1F807F00
1F80FE00
3F83FC00
FFFFF800
FFFFE000
FFFF0000
ENDCHAR

STARTCHAR E
ENCODING 69
SWIDTH 720 0
DWIDTH 23 0
BBX 25 23 -1 0
BITMAP
0FFFFE00
0FFFFF00
1FFFFF00
07F03F00
03F00F00
07E00780
07E1C380
07E1C380
07E3C000
07FF8000
0FFF8000
0FFF8000
0FC78000
0FC38000
0FC30200
0F830700
1F800F00
1F803E00
1F807E00
3F81FC00
FFFFFC00
FFFFFC00
FFFFF800
ENDCHAR

STARTCHAR F
ENCODING 70
SWIDTH 660 0
DWIDTH 22 0
BBX 24 23 -1 0
BITMAP
0FFFFE
0FFFFE
0FFFFE
07F87F
03F01F
03F00F
03E1C7
07E1C7
07E1C3
07E380
07FF80
07FF80
07FF80
0FC780
0FC380
0FC300
0FC300
0FC000
0F8000
1FC000
FFF000
FFF000
FFF000
ENDCHAR

STARTCHAR G
ENCODING 71
SWIDTH 760 0
DWIDTH 22 0
BBX 25 23 -1 0
BITMAP
007F1C00
01FFFC00
07FFFC00
0FE1FC00
1FC07C00
3F803C00
3F001E00
7F000E00
7E000E00
FE000000
FE000000
FC03FF80
FC03FF80
FC03FF80
FC00FE00
FC00FC00
FE00F800
7E01F800
7F01F800
3F87F800
3FFFF800
0FFEF800
07F87000
ENDCHAR

STARTCHAR H
ENCODING 72
SWIDTH 800 0
DWIDTH 26 0
BBX 29 23 -1 0
BITMAP
0FFE3FF8
1FFE3FF8
1FFE7FF8
03F81FE0
03F00FC0
03F00FC0
03E01F80
07E01F80
07E01F80
07FFFF80
07FFFF80
07FFFF00
07C03F00
0FC03F00
0FC03F00
0FC03F00
0FC03F00
0FC03E00
1F807E00
1FC07F00
FFF3FFC0
FFF3FFC0
FFF3FF80
ENDCHAR

STARTCHAR I
ENCODING 73
SWIDTH 380 0
DWIDTH 13 0
BBX 15 23 -1 0
BITMAP
1FFE
1FFE
1FFE
07F8
03F0
07F0
07E0
07E0
07E0
07E0
07E0
0FE0
0FC0
0FC0
0FC0
0FC0
0FC0
1FC0
1F80
3FC0
FFF0
FFF0
FFE0
ENDCHAR

STARTCHAR J
ENCODING 74
SWIDTH 620 0
DWIDTH 20 0
BBX 24 23 -2 0
BITMAP
000FFF
000FFF
000FFF
0001FC
0001F8
0001F8
0003F8
0003F0
0003F0
0003F0
0003F0
0003F0
0007F0
3C07E0
7E07E0
FE07E0
FE0FE0
FC0FC0
F81FC0
7C3FC0
7FFF00
3FFE00
07F000
ENDCHAR

STARTCHAR K
ENCODING 75
SWIDTH 780 0
DWIDTH 26 0
BBX 28 23 -1 0
BITMAP
1FFE7FF0
1FFEFFF0
1FFEFFF0
07F03F80
03F07E00
03E0F800
07E1F000
07E3E000
07EFC000
07FFC000
07FFE000
07FFE000
0FF7F000
0FE3F000
0FC3F800
0FC1F800
0FC1FC00
1F80FE00
1F80FE00
3F80FF00
FFE3FFC0
FFE3FFC0
FFE3FF80
ENDCHAR

STARTCHAR L
ENCODING 76
SWIDTH 640 0
DWIDTH 21 0
BBX 23 23 -1 0
BITMAP
0FFF00
1FFE00
1FFE00
07F800
03F000
03F000
07F000
07E000
07E000
07E000
07E000
07E000
0FE000
0FC000
0FC006
0FC00E
0FC01E
1FC03C
1F80FC
3FC3F8
FFFFF8
FFFFF0
FFFFF0
ENDCHAR

STARTCHAR M
ENCODING 77
SWIDTH 860 0
DWIDTH 28 0
BBX 31 23 -1 0
BITMAP
1FF807FE
1FFC0FFE
1FFC0FFE
07FC1FF0
07FC1FF0
07FC3BE0
077C3FE0
077C77E0
0F7C77E0
0F7CE7E0
0E7EE7C0
0E7FEFC0
0E7FCFC0
0E3FCFC0
1E3F8FC0
1E3F8FC0
1C3F0F80
1C3F1F80
1C3E1F80
3C3E3F80
FFBCFFE0
FF9CFFE0
FF18FFE0
ENDCHAR

STARTCHAR N
ENCODING 78
SWIDTH 740 0
DWIDTH 24 0
BBX 27 23 -1 0
BITMAP
0FFC3FE0
1FFC3FE0
1FFE3FE0
07FE0F80
03FE0700
03FF0F00
07BF0F00
07BF0E00
079F8E00
071F8E00
070FCE00
070FDE00
0F0FDE00
0F07FC00
0F07FC00
0E03FC00
0E03FC00
0E03FC00
1E01FC00
3E01F800
FF80F800
FF80F800
FF80F800
ENDCHAR

STARTCHAR O
ENCODING 79
SWIDTH 760 0
DWIDTH 24 0
BBX 24 23 0 0
BITMAP
003F80
01FFF0
07FFF8
0FE1FC
1FC0FE
3F807E
3F007F
7F003F
7E003F
FE003F
FE003F
FC003F
FC007F
FC007F
FC007E
FC00FE
FE00FC
7E01FC
7F03F8
3F87F0
1FFFE0
0FFF80
03FE00
ENDCHAR

STARTCHAR P
ENCODING 80
SWIDTH 640 0
DWIDTH 21 0
BBX 24 23 -1 0
BITMAP
1FFFF0
1FFFFC
1FFFFE
07F0FF
03F07F
03E03F
07E03F
07E07F
07E07F
07E0FE
07E3FE
0FFFFC
0FFFF8
0FFFC0
0FC000
0FC000
0F8000
1F8000
1F8000
3F8000
FFF000
FFF000
FFE000
ENDCHAR

STARTCHAR Q
ENCODING 81
SWIDTH 760 0
DWIDTH 24 0
BBX 25 30 -1 -7
BITMAP
003FC000
00FFF800
03FFFC00
07F8FE00
0FE07F00
1FC03F00
1F803F80
3F801F80
3F001F80
7F001F80
7F001F80
7E001F80
7E003F80
7E003F80
7E003F00
7E0F3F00
7E3FFE00
3F7FFE00
3FFFFC00
1FE3FC00
0FFFFC00
07FFFC00
F1FF7C00
F0007C00
F800FC00
F801F800
FE07F000
7FFFE000
1FFF8000
03FC0000
ENDCHAR

STARTCHAR R
ENCODING 82
SWIDTH 740 0
DWIDTH 24 0
BBX 25 23 -1 0
BITMAP
0FFFF800
0FFFFE00
0FFFFF00
03F83F80
03F01F80
03F01F80
03F01F80
03F03F80
03E07F00
07E1FF00
07FFFE00
07FFF800
07FFE000
07E7F000
07C3F000
0FC3F800
0FC1F800
0FC1FC00
0FC0FE00
1FC0FF00
7FF07F80
FFF07F80
FFF03F80
ENDCHAR

STARTCHAR S
ENCODING 83
SWIDTH 700 0
DWIDTH 23 0
BBX 23 23 0 0
BITMAP
00FF00
07FFDC
0FFFFC
1FC1FC
3F807C
3F003C
3F801C
3FE00E
3FFE00
3FFFC0
1FFFF0
0FFFF8
03FFFC
007FFC
E007FE
E001FE
F000FE
F800FC
7C01FC
7F03F8
7FFFF0
77FFC0
00FF00
ENDCHAR

STARTCHAR T
ENCODING 84
SWIDTH 700 0
DWIDTH 23 0
BBX 24 23 1 0
BITMAP
3FFFFC
3FFFFC
7FFFFE
7C7E7E
F87E1E
E07E0E
E0FC0F
C0FC06
00FC00
00FC00
00FC00
01FC00
01F800
01F800
01F800
01F800
01F800
03F000
03F000
07F800
1FFE00
3FFE00
3FFE00
ENDCHAR

STARTCHAR U
ENCODING 85
SWIDTH 740 0
DWIDTH 24 0
BBX 24 23 2 0
BITMAP
FFF1FF
FFF1FF
FFF1FF
3F807C
3F0078
3F0078
3F0070
7F0070
7E0070
7E0070
7E00F0
7E00F0
7E00E0
FE00E0
FC00E0
FC00E0
FC01C0
FC01C0
FE03C0
FF0F80
7FFF00
3FFE00
0FF800
ENDCHAR

STARTCHAR V
ENCODING 86
SWIDTH 660 0
DWIDTH 22 0
BBX 25 23 0 0
BITMAP
FFF0FF80
FFF0FF80
FFF0FF80
3F803E00
1F803C00
1F807800
1F807000
0FC0F000
0FC0E000
0FC1E000
0FC1C000
0FC3C000
07E38000
07E78000
07E70000
07EE0000
07EE0000
03FC0000
03FC0000
03F80000
03F80000
01F00000
01F00000
ENDCHAR

STARTCHAR W
ENCODING 87
SWIDTH 1000 0
DWIDTH 33 0
BBX 34 23 0 0
BITMAP
FFE7FE7FC0
FFEFFE7FC0
FFCFFE7FC0
7F03F81F00
3F01F01E00
3F03F01C00
1F03F83800
1F83F83800
1F87F87800
1F87F87000
1F8FF8F000
1F8FF8E000
1F9CF9E000
0F9CFDC000
0FF8FDC000
0FF8FF8000
0FF0FF8000
0FF0FF0000
0FF0FF0000
0FE07E0000
07E07E0000
07C07C0000
07C07C0000
ENDCHAR

STARTCHAR X
ENCODING 88
SWIDTH 740 0
DWIDTH 25 0
BBX 28 23 -1 0
BITMAP
0FFF3FF0
0FFF3FF0
0FFF3FF0
03FC0FC0
01FC1F00
00FE3E00
00FE7C00
007FF800
003FF000
003FE000
001FC000
001FC000
003FE000
007FE000
00F7F000
01E7F800
03E3F800
07C3FC00
0F81FE00
3F81FF00
FFE7FFC0
FFE7FFC0
FFC7FFC0
ENDCHAR

STARTCHAR Y
ENCODING 89
SWIDTH 660 0
DWIDTH 22 0
BBX 24 23 0 0
BITMAP
FFF1FF
FFF1FF
FFF1FF
7F807C
1F80F8
1FC1F0
0FC1E0
0FC3C0
07E780
07EF00
03FE00
03FC00
01FC00
01F800
01F800
01F000
03F000
03F000
03F000
07F000
1FFE00
1FFE00
3FFC00
ENDCHAR

STARTCHAR Z
ENCODING 90
SWIDTH 680 0
DWIDTH 23 0
BBX 24 23 -1 0
BITMAP
07FFFF
0FFFFF
0FFFFF
1FC1FE
1F03FC
1E07F8
3C07F0
180FE0
001FC0
003FC0
007F80
00FF00
01FE00
03FC00
07F804
07F00E
0FE01E
1FC03C
3FC07C
7F83FC
FFFFF8
FFFFF8
7FFFF0
ENDCHAR

STARTCHAR bracketleft
ENCODING 91
SWIDTH 260 0
DWIDTH 9 0
BBX 12 29 0 -4
BITMAP
07F0
07F0
07F0
0780
0F80
0F80
0F80
0F80
0F00
1F00
1F00
1F00
1F00
1E00
1E00
3E00
3E00
3E00
3E00
3C00
7C00
7C00
7C00
7C00
7C00
7800
FF00
FF00
FF00
ENDCHAR

STARTCHAR backslash
ENCODING 92
SWIDTH 580 0
DWIDTH 19 0
BBX 16 25 2 0
BITMAP
F000
7800
7800
7C00
3C00
3E00
1E00
1F00
0F00
0F80
0780
07C0
03C0
03E0
01E0
01F0
00F0
00F8
0078
007C
003C
003E
001E
001E
000F
ENDCHAR

STARTCHAR bracketright
ENCODING 93
SWIDTH 260 0
DWIDTH 9 0
BBX 12 29 -1 -4
BITMAP
0FF0
0FF0
0FF0
03E0
03E0
03E0
03E0
03E0
03C0
03C0
07C0
07C0
07C0
07C0
0780
0F80
0F80
0F80
0F80
0F80
0F00
1F00
1F00
1F00
1F00
1E00
FE00
FE00
FE00
ENDCHAR

STARTCHAR asciicircum
ENCODING 94
SWIDTH 620 0
DWIDTH 21 0
BBX 17 13 3 10
BITMAP
03E000
03E000
07F000
07F000
0FF800
0F7800
1F7C00
1E3C00
3E3E00
3C1E00
7C1F00
780F00
F80F80
ENDCHAR

STARTCHAR underscore
ENCODING 95
SWIDTH 500 0
DWIDTH 16 0
BBX 16 2 0 -5
BITMAP
FFFF
FFFF
ENDCHAR

STARTCHAR quoteleft
ENCODING 96
SWIDTH 320 0
DWIDTH 11 0
BBX 6 9 3 14
BITMAP
0C
18
30
70
FC
FC
FC
F8
70
ENDCHAR

STARTCHAR a
ENCODING 97
SWIDTH 680 0
DWIDTH 21 0
BBX 21 17 0 0
BITMAP
01F9E0
07FFE0
0FFFE0
1F87E0
3F03E0
7E07E0
7E07C0
FE07C0
FC07C0
FC0FC0
FC0FC0
FC1FC0
FC1FC0
7E7FF8
7FFFF8
3FE7F8
0FC3E0
ENDCHAR

STARTCHAR b
ENCODING 98
SWIDTH 600 0
DWIDTH 21 0
BBX 19 24 1 0
BITMAP
038000
7F8000
7F0000
7F0000
1F0000
1F0000
1F0000
3E7E00
3EFF00
3FFF80
3FCFC0
3F87C0
7F07E0
7E07E0
7E07E0
7E07E0
7C0FC0
7C0FC0
FC0F80
FC1F80
FC3F00
FFFE00
FFFC00
FBF000
ENDCHAR

STARTCHAR c
ENCODING 99
SWIDTH 560 0
DWIDTH 18 0
BBX 18 17 0 0
BITMAP
007C00
03FF00
0FFF80
1F8FC0
3F0FC0
3E0FC0
7E0780
7C0000
FC0000
FC0000
FC0000
FC0000
7C0700
7E1F80
3FFE00
1FFC00
0FE000
ENDCHAR

STARTCHAR d
ENCODING 100
SWIDTH 680 0
DWIDTH 22 0
BBX 22 24 0 0
BITMAP
000078
000FF8
000FF8
000FF0
0003F0
0003F0
0003F0
01FBF0
07FFF0
0FFFE0
1F87E0
3F07E0
7E07E0
7E07E0
FE07C0
FC0FC0
FC0FC0
FC0FC0
FC1FC0
FC1FC0
7E7FF8
7FFFFC
3FE7F8
0FC7E0
ENDCHAR

STARTCHAR e
ENCODING 101
SWIDTH 560 0
DWIDTH 19 0
BBX 18 17 0 0
BITMAP
003E00
03FF80
0FFFC0
1F87C0
3F07C0
7E0FC0
7E3F80
FFFF00
FFF000
FC0000
FC0000
FC0300
7E0780
7F1F80
3FFE00
1FFC00
07F000
ENDCHAR

STARTCHAR f
ENCODING 102
SWIDTH 420 0
DWIDTH 13 0
BBX 28 32 -9 -7
BITMAP
00000FC0
00003FF0
0000FFF0
0001F9F0
0001F0E0
0003F000
0003F000
0003E000
001FFC00
001FFC00
003FFC00
0007E000
0007C000
0007C000
0007C000
000FC000
000FC000
000F8000
000F8000
000F8000
001F8000
001F8000
001F8000
001F0000
001F0000
003E0000
003E0000
787C0000
FCF80000
FFF00000
FFE00000
7F800000
ENDCHAR

STARTCHAR g
ENCODING 103
SWIDTH 620 0
DWIDTH 20 0
BBX 22 24 -2 -7
BITMAP
007CFC
01FFFC
03FFF8
07E1F8
0FC0F8
1F81F8
1F81F8
1F81F8
3F01F0
3F03F0
3F03F0
3F07F0
3F07F0
1F8FE0
1FFFE0
0FFBE0
03E7E0
0007C0
780FC0
F81FC0
FC3F80
FFFF00
7FFC00
1FF000
ENDCHAR

STARTCHAR h
ENCODING 104
SWIDTH 700 0
DWIDTH 21 0
BBX 21 24 0 0
BITMAP
03C000
3FC000
7FC000
7F8000
1F8000
1F8000
1F8000
1F9F00
1F7FC0
1FFFE0
1FFFE0
3F07E0
3F07E0
3F07C0
3E07C0
3E0FC0
7E0FC0
7E0FC0
7E0FC0
7C0FC0
7C0FF8
7C0FF8
FC0FF0
FC03C0
ENDCHAR

STARTCHAR i
ENCODING 105
SWIDTH 380 0
DWIDTH 11 0
BBX 11 25 0 0
BITMAP
0780
0FC0
1FC0
1FC0
1F80
0F00
0000
0000
0780
FF00
FF00
FF00
3F00
3F00
3F00
3E00
3E00
7E00
7E00
7E00
7E00
7FC0
7FE0
7F80
1E00
ENDCHAR

STARTCHAR j
ENCODING 106
SWIDTH 320 0
DWIDTH 10 0
BBX 18 32 -8 -7
BITMAP
0007C0
000FC0
000FC0
000FC0
000FC0
000F80
000000
000000
000780
007F80
007F80
00FF80
003F00
001F00
001F00
003F00
003F00
003E00
003E00
003E00
007E00
007E00
007E00
007C00
007C00
007C00
00FC00
70F800
F9F800
FFF000
FFE000
1F0000
ENDCHAR

STARTCHAR k
ENCODING 107
SWIDTH 700 0
DWIDTH 21 0
BBX 21 24 0 0
BITMAP
038000
7F8000
7F8000
7F8000
1F0000
1F0000
1F0000
1F01F0
3F07F8
3E1FF8
3E3EF0
3E7C00
3EF800
3FF800
7FF800
7FFC00
7FFC00
7EFC00
7EFE00
FC7F00
FC7FF0
FC3FF0
F81FE0
F80F80
ENDCHAR

STARTCHAR l
ENCODING 108
SWIDTH 380 0
DWIDTH 10 0
BBX 10 24 0 0
BITMAP
0780
7F80
7F80
7F80
3F80
1F00
1F00
3F00
3F00
3F00
3E00
3E00
3E00
7E00
7E00
7E00
7C00
7C00
7C00
FC00
FE80
FFC0
FF80
7F00
ENDCHAR

STARTCHAR m
ENCODING 109
SWIDTH 960 0
DWIDTH 31 0
BBX 30 17 1 0
BITMAP
033E0F80
FFFFFFC0
FFFFFFE0
FFFFFFE0
FE1F87E0
3E0F83E0
3E0F83E0
7E1F87E0
7E1F87C0
7C1F07C0
7C1F07C0
7C1F07C0
FC3F0FC0
FC3F0FE8
F83E0FFC
F83E07F8
F83E07F0
ENDCHAR

STARTCHAR n
ENCODING 110
SWIDTH 680 0
DWIDTH 21 0
BBX 21 17 0 0
BITMAP
038F00
7FFFC0
FFFFE0
FFFFE0
3F87E0
3F07E0
3F07C0
3E07C0
3E07C0
3E0FC0
7E0FC0
7E0F80
7E0F80
7C0FF8
7C0FF8
7C0FF0
7C03C0
ENDCHAR

STARTCHAR o
ENCODING 111
SWIDTH 600 0
DWIDTH 20 0
BBX 19 17 0 0
BITMAP
01FC00
07FF00
0FFFC0
1F8FC0
3F07C0
7E07E0
7E07E0
7E07E0
FC07E0
FC0FC0
FC0FC0
FC0FC0
7C1F80
7E3F00
7FFE00
1FFC00
07F000
ENDCHAR

STARTCHAR p
ENCODING 112
SWIDTH 660 0
DWIDTH 21 0
BBX 24 24 -4 -7
BITMAP
0033F0
0FF7FC
0FFFFE
0FFE7E
03F83F
03F83F
03F03F
03F03F
03F03F
07E07F
07E07E
07E07E
07C0FC
07E1F8
07FFF0
0FFFE0
0FDF80
0F8000
0F8000
0F8000
1F8000
7FF000
7FF000
FFF000
ENDCHAR

STARTCHAR q
ENCODING 113
SWIDTH 620 0
DWIDTH 20 0
BBX 19 24 0 -7
BITMAP
01F9E0
07FFE0
0FFFE0
1F87E0
3F07E0
7E07E0
7E07C0
7E07C0
FC0FC0
FC0FC0
FC0FC0
FC1FC0
FC1F80
7E7F80
7FFF80
3FFF80
0FDF80
001F00
001F00
001F00
003F00
01FFE0
01FFC0
01FFC0
ENDCHAR

STARTCHAR r
ENCODING 114
SWIDTH 500 0
DWIDTH 16 0
BBX 16 17 0 0
BITMAP
073E
FF7F
FFFF
FFFF
7F9E
3F00
3F00
7E00
7E00
7E00
7C00
7C00
7C00
FC00
FC00
F800
F800
ENDCHAR

STARTCHAR s
ENCODING 115
SWIDTH 540 0
DWIDTH 19 0
BBX 18 17 0 0
BITMAP
01FC00
07FF80
1FFFC0
3F87C0
3F03C0
3F8000
3FF000
3FFE00
1FFF80
07FFC0
00FFC0
601FC0
F01F80
FC3F80
FFFF00
7FFC00
0FE000
ENDCHAR

STARTCHAR t
ENCODING 116
SWIDTH 440 0
DWIDTH 14 0
BBX 12 22 1 0
BITMAP
0780
0780
0F00
0F00
1F00
FFF0
FFF0
FFF0
3E00
3E00
3E00
7E00
7E00
7C00
7C00
7C00
FC00
FC60
FDE0
FFE0
FFC0
7F00
ENDCHAR

STARTCHAR u
ENCODING 117
SWIDTH 680 0
DWIDTH 21 0
BBX 21 17 0 0
BITMAP
0703E0
FF07E0
FF07E0
FF07C0
3E07C0
3E07C0
3E0FC0
3E0FC0
7E0FC0
7E0F80
7C0F80
7C0F80
7E3F80
7FFFF0
7FFFF8
3FCFF0
1F0380
ENDCHAR

STARTCHAR v
ENCODING 118
SWIDTH 540 0
DWIDTH 18 0
BBX 17 17 0 0
BITMAP
070F00
FF1F80
FF1F80
FF1F80
7F0F80
3E0F80
3E0780
3E0780
7E0700
7E0F00
7C0F00
7C1E00
7E3C00
7FFC00
7FF800
7FE000
1F8000
ENDCHAR

STARTCHAR w
ENCODING 119
SWIDTH 860 0
DWIDTH 29 0
BBX 28 17 0 0
BITMAP
0787C1E0
FF87C3E0
FF07C3F0
FF0FC3F0
3F0FC3F0
3F0F81F0
3F0F80F0
3F0F80F0
3E1F80E0
3E1F80E0
3E1F81E0
7E1F03C0
7E1F8780
7FFFFF80
7FFFFF00
3FF7FC00
0F83F000
ENDCHAR

STARTCHAR x
ENCODING 120
SWIDTH 620 0
DWIDTH 22 0
BBX 21 17 0 0
BITMAP
01E078
1FE1F8
1FE3F8
1FE7F0
07F700
03FE00
03FC00
01FC00
01F800
03FC00
03FC00
07FE00
1F7F20
FE7FF0
FC3FF0
F81FE0
F00F80
ENDCHAR

STARTCHAR y
ENCODING 121
SWIDTH 600 0
DWIDTH 20 0
BBX 21 24 -2 -7
BITMAP
03C1F8
3FC1F8
3FC1F0
3FC1F0
0FC1F0
0F81F0
0F83F0
0F83F0
1F83E0
1F83E0
1F83E0
1F07E0
1F8FE0
1FFFC0
1FFFC0
1FF7C0
07CFC0
000FC0
780F80
F81F80
FC7F00
FFFE00
7FFC00
1FE000
ENDCHAR

STARTCHAR z
ENCODING 122
SWIDTH 560 0
DWIDTH 20 0
BBX 19 17 0 0
BITMAP
07FC00
1FFFC0
3FFFE0
3E0FC0
3E1F80
3C3F00
007E00
00FC00
01F000
03E000
0FC000
1F83C0
3F03C0
7E0FC0
FFFFC0
7FFF80
6FFE00
ENDCHAR

STARTCHAR braceleft
ENCODING 123
SWIDTH 300 0
DWIDTH 10 0
BBX 10 31 1 -5
BITMAP
0040
03C0
0780
0F80
0F00
0F00
1F00
1F00
1E00
1E00
1E00
1E00
3E00
3C00
7800
F000
7800
7C00
7C00
7C00
7800
7800
7800
F800
F800
F800
F000
F000
F800
7800
0800
ENDCHAR

STARTCHAR bar
ENCODING 124
SWIDTH 620 0
DWIDTH 21 0
BBX 4 25 10 0
BITMAP
F0
F0
F0
F0
F0
F0
F0
F0
F0
F0
F0
F0
F0
F0
F0
F0
F0
F0
F0
F0
F0
F0
F0
F0
F0
ENDCHAR

STARTCHAR braceright
ENCODING 125
SWIDTH 300 0
DWIDTH 10 0
BBX 10 31 0 -5
BITMAP
0400
0780
03C0
03C0
03C0
03C0
07C0
07C0
07C0
0780
0780
0780
0780
0780
0780
03C0
0780
0F00
1F00
1F00
1E00
1E00
1E00
3E00
3E00
3E00
3C00
3C00
7C00
F000
8000
ENDCHAR

STARTCHAR asciitilde
ENCODING 126
SWIDTH 620 0
DWIDTH 21 0
BBX 17 6 3 6
BITMAP
0C0000
3F8300
7FFF80
7FFF00
F3FF00
607E00
ENDCHAR

STARTCHAR exclamdown
ENCODING 161
SWIDTH 320 0
DWIDTH 11 0
BBX 9 23 1 -6
BITMAP
0700
0F80
1F80
1F80
1F00
0E00
0000
0000
1C00
1C00
1C00
3C00
3C00
3C00
7C00
7C00
7C00
FC00
FC00
FC00
FC00
F800
F000
ENDCHAR

STARTCHAR cent
ENCODING 162
SWIDTH 680 0
DWIDTH 23 0
BBX 15 23 5 1
BITMAP
00E0
00E0
00E0
00E0
03F8
0FFC
1FFE
3E3E
7C3E
FC1C
F800
F800
F800
FC0C
FE3C
7FFC
3FF0
1FC0
0700
0700
0700
0F00
0E00
ENDCHAR

STARTCHAR sterling
ENCODING 163
SWIDTH 680 0
DWIDTH 23 0
BBX 26 23 0 0
BITMAP
00003E00
0003FF80
0007FF80
000F87C0
001F03C0
003F07C0
003E07C0
003E0780
007E0000
03FFE000
03FFE000
07FFE000
007C0000
00F80000
00F80000
00F83800
3FF87E00
7FF01E00
FFFE0E00
E3FFFE00
FFDFFE00
FF87FC00
3E01F800
ENDCHAR

STARTCHAR currency
ENCODING 164
SWIDTH 680 0
DWIDTH 23 0
BBX 15 15 6 3
BITMAP
EFEE
FFFE
FFFE
7EFC
F83E
F01E
F01E
E00E
F01E
F01E
F83E
7EFC
FFFE
FFFE
EFEE
ENDCHAR

STARTCHAR yen
ENCODING 165
SWIDTH 680 0
DWIDTH 23 0
BBX 23 23 3 0
BITMAP
7FE3FE
FFE3FE
FFE3FC
3F81F0
1F81E0
1FC3C0
0FC780
0FC700
7FEFE0
7FFFE0
7FFFE0
03F800
01F000
FFFFE0
FFFFC0
FFFFC0
03F000
03E000
03E000
07F000
3FFC00
3FFC00
3FFC00
ENDCHAR

STARTCHAR brokenbar
ENCODING 166
SWIDTH 620 0
DWIDTH 20 0
BBX 4 25 8 0
BITMAP
F0
F0
F0
F0
F0
F0
F0
F0
00
00
00
00
00
00
00
00
00
F0
F0
F0
F0
F0
F0
F0
F0
ENDCHAR

STARTCHAR section
ENCODING 167
SWIDTH 620 0
DWIDTH 21 0
BBX 19 27 2 -4
BITMAP
007E00
01FF80
07FFC0
0F83E0
0F03E0
1F03E0
1F83C0
1FF180
0FFE00
0FFF80
0FFFC0
1E7FC0
3C0FC0
3E03C0
3F83C0
3FF780
3FFF80
0FFF00
03FF80
207F80
F00F80
F00780
F00F00
F00F00
FC3E00
7FFC00
1FF000
ENDCHAR

STARTCHAR dieresis
ENCODING 168
SWIDTH 520 0
DWIDTH 17 0
BBX 13 5 2 18
BITMAP
3030
7878
F8F8
F0F0
6060
ENDCHAR

STARTCHAR copyright
ENCODING 169
SWIDTH 780 0
DWIDTH 26 0
BBX 23 23 1 0
BITMAP
007C00
03FF80
07FFE0
1F01F0
1E0070
383C38
78FF1C
71E31C
71C31C
E3C10E
E3800E
E3800E
E3800E
E3800E
F3C00E
73C11C
71E31C
78FF3C
3C3878
1E00F0
0FFFE0
03FF80
007E00
ENDCHAR

STARTCHAR ordfeminine
ENCODING 170
SWIDTH 440 0
DWIDTH 15 0
BBX 14 13 1 10
BITMAP
07B8
0FF8
1E78
3C70
3C70
3C70
38F0
3DF0
1FFC
0F78
0000
0000
FFF8
ENDCHAR

STARTCHAR guillemotleft
ENCODING 171
SWIDTH 380 0
DWIDTH 13 0
BBX 12 14 1 3
BITMAP
0C20
0C70
1C70
3CE0
39E0
79C0
73C0
F380
73C0
71C0
79C0
39C0
38C0
1080
ENDCHAR

STARTCHAR logicalnot
ENCODING 172
SWIDTH 620 0
DWIDTH 21 0
BBX 17 10 3 4
BITMAP
FFFF80
FFFF80
FFFF80
FFFF80
000780
000780
000780
000780
000780
000780
ENDCHAR

STARTCHAR hyphen
ENCODING 173
SWIDTH 280 0
DWIDTH 9 0
BBX 9 3 2 7
BITMAP
7F80
7F00
FF00
ENDCHAR

STARTCHAR registered
ENCODING 174
SWIDTH 780 0
DWIDTH 26 0
BBX 23 23 2 0
BITMAP
00FC00
03FF80
0FFFC0
1F01F0
3C0070
3BFC38
71CF3C
71C71C
E1C71E
E1C70E
E1DE0E
E1FC0E
E1CE0E
E1CE0E
E1C71E
71C79C
73E3FC
380038
3C0070
1F01F0
0FFFC0
03FF80
00FC00
ENDCHAR

STARTCHAR macron
ENCODING 175
SWIDTH 480 0
DWIDTH 16 0
BBX 12 3 2 18
BITMAP
FFF0
FFF0
FFF0
ENDCHAR

STARTCHAR degree
ENCODING 176
SWIDTH 400 0
DWIDTH 13 0
BBX 10 10 4 13
BITMAP
3F00
7F80
F3C0
E1C0
C0C0
C0C0
E1C0
F3C0
7F80
3F00
ENDCHAR

STARTCHAR plusminus
ENCODING 177
SWIDTH 600 0
DWIDTH 20 0
BBX 16 17 3 0
BITMAP
03C0
03C0
03C0
03C0
FFFF
FFFF
FFFF
FFFF
03C0
03C0
03C0
03C0
0000
FFFF
FFFF
FFFF
FFFF
ENDCHAR

STARTCHAR twosuperior
ENCODING 178
SWIDTH 408 0
DWIDTH 14 0
BBX 13 14 2 9
BITMAP
07C0
1FF0
38F8
7878
7878
30F8
01F0
03E0
0780
0F10
3C38
FFF0
FFF0
FFE0
ENDCHAR

STARTCHAR threesuperior
ENCODING 179
SWIDTH 408 0
DWIDTH 14 0
BBX 13 14 2 9
BITMAP
07C0
1FF0
3878
3878
30F8
07F0
07F0
00F8
0078
7078
F0F8
F1F0
7FE0
1F80
ENDCHAR

STARTCHAR acute
ENCODING 180
SWIDTH 340 0
DWIDTH 11 0
BBX 8 6 2 18
BITMAP
0E
1F
3F
7E
F8
60
ENDCHAR

STARTCHAR mu
ENCODING 181
SWIDTH 680 0
DWIDTH 23 0
BBX 22 24 0 -7
BITMAP
0381F0
7F83F0
7F83F0
7F83F0
1F83E0
1F03E0
1F03E0
1F07E0
1F07E0
3F07C0
3E07C0
3E07C0
3F0FC0
3FFFF8
3FFFFC
7FE7F8
7F81C0
7C0000
FC0000
FC0000
FC0000
FC0000
F80000
600000
ENDCHAR

STARTCHAR paragraph
ENCODING 182
SWIDTH 680 0
DWIDTH 23 0
BBX 22 30 1 -7
BITMAP
01FFFC
0FFFFC
1FFFFC
3F9E78
3F1E78
7E1E78
7E1E78
7E1E78
FC1E78
FC3CF0
FC3CF0
FC3CF0
FC3CF0
7C3CF0
7F38F0
3FF9E0
3FF9E0
0FF9E0
0079E0
0079E0
0071E0
00F3C0
00F3C0
00F3C0
00F3C0
00F3C0
01E3C0
0FFFF0
0FFFF0
0FFFF0
ENDCHAR

STARTCHAR periodcentered
ENCODING 183
SWIDTH 340 0
DWIDTH 11 0
BBX 6 6 4 6
BITMAP
38
7C
FC
FC
F8
70
ENDCHAR

STARTCHAR cedilla
ENCODING 184
SWIDTH 360 0
DWIDTH 12 0
BBX 7 7 3 -7
BITMAP
20
60
7C
0E
CE
FE
78
ENDCHAR

STARTCHAR onesuperior
ENCODING 185
SWIDTH 408 0
DWIDTH 14 0
BBX 9 14 4 9
BITMAP
0380
3F80
3F80
0780
0F00
0F00
0F00
0F00
0F00
1E00
1E00
1E00
FF80
FF80
ENDCHAR

STARTCHAR ordmasculine
ENCODING 186
SWIDTH 440 0
DWIDTH 15 0
BBX 13 13 1 10
BITMAP
03E0
0FF0
1E78
3C38
3C78
3C78
3878
3CF0
1FE0
0F80
0000
0000
FFF8
ENDCHAR

STARTCHAR guillemotright
ENCODING 187
SWIDTH 380 0
DWIDTH 13 0
BBX 11 14 1 3
BITMAP
1080
3180
39C0
39C0
39E0
3CE0
1CE0
3DE0
39C0
7BC0
7380
E300
E700
4200
ENDCHAR

STARTCHAR onequarter
ENCODING 188
SWIDTH 1020 0
DWIDTH 34 0
BBX 31 23 3 0
BITMAP
03800E00
3F801E00
3F803C00
07003800
0F007800
0F00F000
0F00F000
0F01E000
0F01C000
1E03C038
1E078078
1E0701F8
FF8F03F8
FF8E0778
001E0E78
003C1C70
003838F0
00787FFE
00F07FFC
00F000F0
01E001F0
01C003F8
03C007F8
ENDCHAR

STARTCHAR onehalf
ENCODING 189
SWIDTH 1020 0
DWIDTH 34 0
BBX 30 23 3 0
BITMAP
03800E00
1F801E00
1F801C00
07803C00
07803800
07807000
0F00F000
0F00E000
0F01E000
0F03C1E0
0F0387F8
1E078E3C
7FC71C3C
FFCF1C3C
001E0C7C
001C0078
003C00F0
007801E0
00780788
00F00F1C
00E03FF8
01E03FF8
01C03FF0
ENDCHAR

STARTCHAR threequarters
ENCODING 190
SWIDTH 1020 0
DWIDTH 34 0
BBX 32 23 2 0
BITMAP
07C003C0
1FF00380
38F80780
38780F00
38780F00
00F81E00
07F01C00
07F03C00
00F87800
7078701E
F078F03E
F0F1E07E
7FE1E0DC
1F83C1BC
0003833C
00078E3C
000F1C3C
000E1FFF
001E1FFF
001C0078
003C0078
007801FC
007001FC
ENDCHAR

STARTCHAR questiondown
ENCODING 191
SWIDTH 620 0
DWIDTH 20 0
BBX 17 23 1 -6
BITMAP
007000
00F800
01F800
01F800
01F000
00E000
000000
00E000
01E000
03E000
0FC000
1FC000
3F0000
7E0000
FC0700
FC0F80
FC0F80
FC0F80
FC0F80
FE1F00
7FFE00
3FFC00
07E000
ENDCHAR

STARTCHAR Agrave
ENCODING 192
SWIDTH 720 0
DWIDTH 24 0
BBX 26 27 -1 0
BITMAP
00070000
000F8000
000FC000
0007E000
0001F000
00006000
00000000
0007E000
0007E000
000FE000
001FF000
001DF000
0039F000
0079F000
0070F800
00E0F800
01E0F800
01FFF800
03FFFC00
07807C00
07007C00
0E007C00
1E003E00
3E003E00
FF81FFC0
FF81FFC0
FF81FFC0
ENDCHAR

STARTCHAR Aacute
ENCODING 193
SWIDTH 720 0
DWIDTH 24 0
BBX 26 27 -1 0
BITMAP
00007000
0000F800
0001F800
0003F000
0007C000
00030000
00000000
0007E000
0007E000
000FE000
001FF000
001DF000
0039F000
0079F000
0070F800
00E0F800
01E0F800
01FFF800
03FFFC00
07807C00
07007C00
0E007C00
1E003E00
3E003E00
FF81FFC0
FF81FFC0
FF81FFC0
ENDCHAR

STARTCHAR Acircumflex
ENCODING 194
SWIDTH 720 0
DWIDTH 24 0
BBX 26 26 -1 0
BITMAP
0000E000
0003F000
000FF800
001F3C00
000C1800
00000000
0007E000
0007E000
000FE000
001FF000
001DF000
0039F000
0079F000
0070F800
00E0F800
01E0F800
01FFF800
03FFFC00
07807C00
07007C00
0E007C00
1E003E00
3E003E00
FF81FFC0
FF81FFC0
FF81FFC0
ENDCHAR

STARTCHAR Atilde
ENCODING 195
SWIDTH 720 0
DWIDTH 24 0
BBX 26 25 -1 0
BITMAP
000F1800
001FFC00
003FF800
0018F000
00000000
0007E000
0007E000
000FE000
001FF000
001DF000
0039F000
0079F000
0070F800
00E0F800
01E0F800
01FFF800
03FFFC00
07807C00
07007C00
0E007C00
1E003E00
3E003E00
FF81FFC0
FF81FFC0
FF81FFC0
ENDCHAR

STARTCHAR Adieresis
ENCODING 196
SWIDTH 720 0
DWIDTH 24 0
BBX 26 26 -1 0
BITMAP
000C0C00
001E1E00
003E3E00
003C3C00
00181800
00000000
0007E000
0007E000
000FE000
001FF000
001DF000
0039F000
0079F000
0070F800
00E0F800
01E0F800
01FFF800
03FFFC00
07807C00
07007C00
0E007C00
1E003E00
3E003E00
FF81FFC0
FF81FFC0
FF81FFC0
ENDCHAR

STARTCHAR Aring
ENCODING 197
SWIDTH 720 0
DWIDTH 24 0
BBX 26 27 -1 0
BITMAP
0001C000
0003E000
00063000
00063000
00063000
0003E000
0001C000
0007E000
0007E000
000FE000
001FF000
001DF000
0039F000
0079F000
0070F800
00E0F800
01E0F800
01FFF800
03FFFC00
07807C00
07007C00
0E007C00
1E003E00
3E003E00
FF81FFC0
FF81FFC0
FF81FFC0
ENDCHAR

STARTCHAR AE
ENCODING 198
SWIDTH 1140 0
DWIDTH 38 0
BBX 41 23 -1 0
BITMAP
000003FFFE00
000007FFFE00
00000FFFFF00
00001FF03F00
00001FF00F00
00003BE00700
00007BE1C780
0000F7E1C380
0001E7E3C000
0003C7FF8000
000787FF8000
000F07FF8000
001FFFFF8000
003FFFC78000
007FFFC38000
00F00FC30700
01E00F800F00
03C00F801F00
07C01F807E00
1F801F81FC00
7FF07FFFFC00
FFF0FFFFF800
FFF0FFFFF800
ENDCHAR

STARTCHAR Ccedilla
ENCODING 199
SWIDTH 700 0
DWIDTH 22 0
BBX 22 30 0 -7
BITMAP
007F00
01FFF8
07FFF8
0FE1F8
1FC07C
3F803C
3F003C
7F001C
7E001C
FE0000
FE0000
FC0000
FC0000
FC0000
FC0000
FC0000
FE003C
7E0078
7F00F8
3F83F0
1FFFC0
0FFF80
01FE00
004000
00C000
00F800
001C00
019C00
01FC00
00F000
ENDCHAR

STARTCHAR Egrave
ENCODING 200
SWIDTH 720 0
DWIDTH 23 0
BBX 25 27 -1 0
BITMAP
001C0000
003E0000
003F0000
001F8000
0007C000
00018000
00000000
0FFFFE00
0FFFFE00
0FFFFF00
07F03F00
03F00F00
07E0C780
07E1C380
07E3C380
07FF8000
07FF8000
0FC78000
0FC30300
0F830700
1F830F00
1F801E00
1F807E00
3F81FC00
FFFFFC00
FFFFF800
FFFFF800
ENDCHAR

STARTCHAR Eacute
ENCODING 201
SWIDTH 720 0
DWIDTH 23 0
BBX 25 27 -1 0
BITMAP
00038000
0007C000
000FC000
001F8000
003E0000
00180000
00000000
0FFFFE00
0FFFFE00
0FFFFF00
07F03F00
03F00F00
07E0C780
07E1C380
07E3C380
07FF8000
07FF8000
0FC78000
0FC30300
0F830700
1F830F00
1F801E00
1F807E00
3F81FC00
FFFFFC00
FFFFF800
FFFFF800
ENDCHAR

STARTCHAR Ecircumflex
ENCODING 202
SWIDTH 720 0
DWIDTH 23 0
BBX 25 26 -1 0
BITMAP
00038000
000FC000
003FE000
007CF000
00306000
00000000
0FFFFE00
0FFFFE00
0FFFFF00
07F03F00
03F00F00
07E0C780
07E1C380
07E3C380
07FF8000
07FF8000
0FC78000
0FC30300
0F830700
1F830F00
1F801E00
1F807E00
3F81FC00
FFFFFC00
FFFFF800
FFFFF800
ENDCHAR

STARTCHAR Edieresis
ENCODING 203
SWIDTH 720 0
DWIDTH 23 0
BBX 25 26 -1 0
BITMAP
00303000
00787800
00F8F800
00F0F000
00606000
00000000
0FFFFE00
0FFFFE00
0FFFFF00
07F03F00
03F00F00
07E0C780
07E1C380
07E3C380
07FF8000
07FF8000
0FC78000
0FC30300
0F830700
1F830F00
1F801E00
1F807E00
3F81FC00
FFFFFC00
FFFFF800
FFFFF800
ENDCHAR

STARTCHAR Igrave
ENCODING 204
SWIDTH 380 0
DWIDTH 13 0
BBX 15 27 -1 0
BITMAP
0380
07C0
07E0
03F0
00F8
0030
0000
1FFE
1FFE
1FFE
07F8
03F0
03F0
07E0
07E0
07E0
07E0
0FC0
0FC0
0FC0
0FC0
1F80
1F80
3FC0
FFF0
FFF0
FFF0
ENDCHAR

STARTCHAR Iacute
ENCODING 205
SWIDTH 380 0
DWIDTH 13 0
BBX 15 27 -1 0
BITMAP
001C
003E
007E
00FC
01F0
00C0
0000
1FFE
1FFE
1FFE
07F8
03F0
03F0
07E0
07E0
07E0
07E0
0FC0
0FC0
0FC0
0FC0
1F80
1F80
3FC0
FFF0
FFF0
FFF0
ENDCHAR

STARTCHAR Icircumflex
ENCODING 206
SWIDTH 380 0
DWIDTH 13 0
BBX 15 26 -1 0
BITMAP
0070
01F8
07FC
0F9E
060C
0000
1FFE
1FFE
1FFE
07F8
03F0
03F0
07E0
07E0
07E0
07E0
0FC0
0FC0
0FC0
0FC0
1F80
1F80
3FC0
FFF0
FFF0
FFF0
ENDCHAR

STARTCHAR Idieresis
ENCODING 207
SWIDTH 380 0
DWIDTH 13 0
BBX 16 26 -1 0
BITMAP
0606
0F0F
1F1F
1E1E
0C0C
0000
1FFE
1FFE
1FFE
07F8
03F0
03F0
07E0
07E0
07E0
07E0
0FC0
0FC0
0FC0
0FC0
1F80
1F80
3FC0
FFF0
FFF0
FFF0
ENDCHAR

STARTCHAR Eth
ENCODING 208
SWIDTH 760 0
DWIDTH 25 0
BBX 26 23 0 0
BITMAP
1FFFF000
1FFFFC00
1FFFFE00
07F07F00
07E01F80
07E01F80
07E00FC0
07E00FC0
07E00FC0
3FFF0FC0
7FFF0FC0
7FFF0FC0
0FC01FC0
0FC01F80
0FC01F80
0F803F80
1F803F00
1F807F00
1F80FE00
3F83FC00
FFFFF800
FFFFE000
FFFF0000
ENDCHAR

STARTCHAR Ntilde
ENCODING 209
SWIDTH 740 0
DWIDTH 24 0
BBX 27 25 -1 0
BITMAP
000F1800
001FFC00
003FF800
0018F000
00000000
0FFC1FE0
1FFC1FE0
1FFE1FE0
07FE0780
03FF0700
03FF0700
03BF8700
03BF8F00
071FCE00
071FCE00
070FEE00
070FFE00
0707FC00
0E07FC00
0E03FC00
0E03FC00
1E01FC00
FF81F800
FF80F800
FF80F800
ENDCHAR

STARTCHAR Ograve
ENCODING 210
SWIDTH 760 0
DWIDTH 24 0
BBX 24 27 0 0
BITMAP
003800
007C00
007E00
003F00
000F80
000300
000000
003F80
01FFF0
07FFF8
0FC1FC
1F80FE
3F007E
3F007F
7E003F
7E003F
FC003F
FC003F
FC007F
FC007E
FE00FE
7E00FC
7F01FC
3F83F8
1FFFF0
0FFFC0
03FE00
ENDCHAR

STARTCHAR Oacute
ENCODING 211
SWIDTH 760 0
DWIDTH 24 0
BBX 24 27 0 0
BITMAP
000380
0007C0
000FC0
001F80
003E00
001800
000000
003F80
01FFF0
07FFF8
0FC1FC
1F80FE
3F007E
3F007F
7E003F
7E003F
FC003F
FC003F
FC007F
FC007E
FE00FE
7E00FC
7F01FC
3F83F8
1FFFF0
0FFFC0
03FE00
ENDCHAR

STARTCHAR Ocircumflex
ENCODING 212
SWIDTH 760 0
DWIDTH 24 0
BBX 24 26 0 0
BITMAP
000700
001F80
007FC0
00F9E0
0060C0
000000
003F80
01FFF0
07FFF8
0FC1FC
1F80FE
3F007E
3F007F
7E003F
7E003F
FC003F
FC003F
FC007F
FC007E
FE00FE
7E00FC
7F01FC
3F83F8
1FFFF0
0FFFC0
03FE00
ENDCHAR

STARTCHAR Otilde
ENCODING 213
SWIDTH 760 0
DWIDTH 24 0
BBX 24 25 0 0
BITMAP
0078C0
00FFE0
01FFC0
00C780
000000
003F80
01FFF0
07FFF8
0FC1FC
1F80FE
3F007E
3F007F
7E003F
7E003F
FC003F
FC003F
FC007F
FC007E
FE00FE
7E00FC
7F01FC
3F83F8
1FFFF0
0FFFC0
03FE00
ENDCHAR

STARTCHAR Odieresis
ENCODING 214
SWIDTH 760 0
DWIDTH 24 0
BBX 24 26 0 0
BITMAP
003030
007878
00F8F8
00F0F0
006060
000000
003F80
01FFF0
07FFF8
0FC1FC
1F80FE
3F007E
3F007F
7E003F
7E003F
FC003F
FC003F
FC007F
FC007E
FE00FE
7E00FC
7F01FC
3F83F8
1FFFF0
0FFFC0
03FE00
ENDCHAR

STARTCHAR multiply
ENCODING 215
SWIDTH 600 0
DWIDTH 20 0
BBX 17 16 3 0
BITMAP
700700
F80F80
7C1F00
3E3E00
1F7C00
0FF800
07F000
03E000
07F000
0FF800
1F7C00
3E3E00
7C1F00
F80F80
700700
200200
ENDCHAR

STARTCHAR Oslash
ENCODING 216
SWIDTH 760 0
DWIDTH 25 0
BBX 26 25 0 -1
BITMAP
000001C0
003FC380
00FFFF00
03FFFE00
07F0FE00
0FE07F00
1FC07F00
1F80FF80
3F81DF80
3F039F80
7F071F80
7F0E1F80
7E1C1F80
7E383F80
7E703F80
7EE03F00
7FC07F00
7F807E00
3F00FE00
3F01FC00
1FC7F800
3FFFF000
77FFC000
E1FF0000
C0000000
ENDCHAR

STARTCHAR Ugrave
ENCODING 217
SWIDTH 740 0
DWIDTH 24 0
BBX 24 27 2 0
BITMAP
007000
00F800
00FC00
007E00
001F00
000600
000000
FFF1FF
FFF1FF
FFF1FF
3F8038
3F0038
3F0038
3F0070
7E0070
7E0070
7E0070
7E00E0
7E00E0
FC00E0
FC00E0
FC01C0
FE01C0
FF03C0
7FFF80
3FFF00
0FFC00
ENDCHAR

STARTCHAR Uacute
ENCODING 218
SWIDTH 740 0
DWIDTH 24 0
BBX 24 27 2 0
BITMAP
000380
0007C0
000FC0
001F80
003E00
001800
000000
FFF1FF
FFF1FF
FFF1FF
3F8038
3F0038
3F0038
3F0070
7E0070
7E0070
7E0070
7E00E0
7E00E0
FC00E0
FC00E0
FC01C0
FE01C0
FF03C0
7FFF80
3FFF00
0FFC00
ENDCHAR

STARTCHAR Ucircumflex
ENCODING 219
SWIDTH 740 0
DWIDTH 24 0
BBX 24 26 2 0
BITMAP
000E00
003F00
00FF80
01F3C0
00C180
000000
FFF1FF
FFF1FF
FFF1FF
3F8038
3F0038
3F0038
3F0070
7E0070
7E0070
7E0070
7E00E0
7E00E0
FC00E0
FC00E0
FC01C0
FE01C0
FF03C0
7FFF80
3FFF00
0FFC00
ENDCHAR

STARTCHAR Udieresis
ENCODING 220
SWIDTH 740 0
DWIDTH 24 0
BBX 24 26 2 0
BITMAP
00C0C0
01E1E0
03E3E0
03C3C0
018180
000000
FFF1FF
FFF1FF
FFF1FF
3F8038
3F0038
3F0038
3F0070
7E0070
7E0070
7E0070
7E00E0
7E00E0
FC00E0
FC00E0
FC01C0
FE01C0
FF03C0
7FFF80
3FFF00
0FFC00
ENDCHAR

STARTCHAR Yacute
ENCODING 221
SWIDTH 660 0
DWIDTH 22 0
BBX 25 27 0 0
BITMAP
00070000
000F8000
001F8000
003F0000
007C0000
00300000
00000000
FFF1FF80
FFF1FF80
FFF1FF80
1F807C00
1FC0F000
0FC1E000
07E3C000
07E78000
03FF0000
03FE0000
01FC0000
01F80000
01F80000
01F00000
03F00000
03F00000
03F00000
1FFE0000
1FFE0000
1FFE0000
ENDCHAR

STARTCHAR Thorn
ENCODING 222
SWIDTH 640 0
DWIDTH 21 0
BBX 24 23 0 0
BITMAP
0FFF00
0FFF00
0FFE00
03F800
03F000
03FFF0
03FFFC
03FFFE
03E07E
07E07F
07E07F
07E07F
07E07F
07E0FE
07C1FE
0FFFFC
0FFFF0
0FFFC0
0FC000
1FC000
7FF000
FFF000
FFF000
ENDCHAR

STARTCHAR germandbls
ENCODING 223
SWIDTH 660 0
DWIDTH 22 0
BBX 31 31 -10 -7
BITMAP
00000FE0
00007FF8
0000FCFC
0001F87C
0001F83C
0001F03C
0003F07C
000FF1F8
001FF7F0
001FE7E0
0007EFE0
0007EFF8
0007E7FC
0007C1FE
0007C0FE
000FC07E
000FC07E
000F807E
000F807E
001F80FC
001F83FC
001F3FF0
001F3FE0
001F3F80
003E0000
003E0000
787C0000
FDF80000
FFF00000
FFE00000
7F800000
ENDCHAR

STARTCHAR agrave
ENCODING 224
SWIDTH 680 0
DWIDTH 21 0
BBX 21 24 0 0
BITMAP
01C000
03E000
03F000
01F800
007C00
001800
000000
01F9E0
07FFE0
0FFFE0
1F87E0
3F03E0
7E07E0
7E07C0
FE07C0
FC07C0
FC0FC0
FC0FC0
FC1FC0
FC1FC0
7E7FF8
7FFFF8
3FE7F8
0FC3E0
ENDCHAR

STARTCHAR aacute
ENCODING 225
SWIDTH 680 0
DWIDTH 21 0
BBX 21 24 0 0
BITMAP
000E00
001F00
003F00
007E00
00F800
006000
000000
01F9E0
07FFE0
0FFFE0
1F87E0
3F03E0
7E07E0
7E07C0
FE07C0
FC07C0
FC0FC0
FC0FC0
FC1FC0
FC1FC0
7E7FF8
7FFFF8
3FE7F8
0FC3E0
ENDCHAR

STARTCHAR acircumflex
ENCODING 226
SWIDTH 680 0
DWIDTH 21 0
BBX 21 23 0 0
BITMAP
003800
00FC00
03FE00
07CF00
030600
000000
01F9E0
07FFE0
0FFFE0
1F87E0
3F03E0
7E07E0
7E07C0
FE07C0
FC07C0
FC0FC0
FC0FC0
FC1FC0
FC1FC0
7E7FF8
7FFFF8
3FE7F8
0FC3E0
ENDCHAR

STARTCHAR atilde
ENCODING 227
SWIDTH 680 0
DWIDTH 21 0
BBX 21 22 0 0
BITMAP
00F180
01FFC0
03FF80
018F00
000000
01F9E0
07FFE0
0FFFE0
1F87E0
3F03E0
7E07E0
7E07C0
FE07C0
FC07C0
FC0FC0
FC0FC0
FC1FC0
FC1FC0
7E7FF8
7FFFF8
3FE7F8
0FC3E0
ENDCHAR

STARTCHAR adieresis
ENCODING 228
SWIDTH 680 0
DWIDTH 21 0
BBX 21 23 0 0
BITMAP
030300
078780
0F8F80
0F0F00
060600
000000
01F9E0
07FFE0
0FFFE0
1F87E0
3F03E0
7E07E0
7E07C0
FE07C0
FC07C0
FC0FC0
FC0FC0
FC1FC0
FC1FC0
7E7FF8
7FFFF8
3FE7F8
0FC3E0
ENDCHAR

STARTCHAR aring
ENCODING 229
SWIDTH 680 0
DWIDTH 21 0
BBX 21 26 0 0
BITMAP
001C00
003E00
006300
006300
006300
003E00
001C00
000000
000000
01F9E0
07FFE0
0FFFE0
1F87E0
3F03E0
7E07E0
7E07C0
FE07C0
FC07C0
FC0FC0
FC0FC0
FC1FC0
FC1FC0
7E7FF8
7FFFF8
3FE7F8
0FC3E0
ENDCHAR

STARTCHAR ae
ENCODING 230
SWIDTH 880 0
DWIDTH 29 0
BBX 28 17 0 0
BITMAP
03F00F80
0FFE7FE0
1FFFFFF0
3E1FE1F0
3C0FC1F0
3C0FC1F0
000F87E0
01FFFFC0
0FFFFF00
3FFFF800
7E1F0000
FC3F0000
F87F81E0
FCFF83C0
FFFFFF80
FFC7FF00
3F01FC00
ENDCHAR

STARTCHAR ccedilla
ENCODING 231
SWIDTH 560 0
DWIDTH 18 0
BBX 18 24 0 -7
BITMAP
007C00
03FF00
0FFF80
1F8FC0
3F0FC0
3E0FC0
7E0780
7C0000
FC0000
FC0000
FC0000
FC0000
7C0700
7E1F80
3FFE00
1FFC00
0FE000
010000
030000
03E000
007000
067000
07F000
03C000
ENDCHAR

STARTCHAR egrave
ENCODING 232
SWIDTH 560 0
DWIDTH 19 0
BBX 18 24 0 0
BITMAP
038000
07C000
07E000
03F000
00F800
003000
000000
003E00
03FF80
0FFFC0
1F87C0
3F07C0
7E0FC0
7E3F80
FFFF00
FFF000
FC0000
FC0000
FC0300
7E0780
7F1F80
3FFE00
1FFC00
07F000
ENDCHAR

STARTCHAR eacute
ENCODING 233
SWIDTH 560 0
DWIDTH 19 0
BBX 18 24 0 0
BITMAP
000700
000F80
001F80
003F00
007C00
003000
000000
003E00
03FF80
0FFFC0
1F87C0
3F07C0
7E0FC0
7E3F80
FFFF00
FFF000
FC0000
FC0000
FC0300
7E0780
7F1F80
3FFE00
1FFC00
07F000
ENDCHAR

STARTCHAR ecircumflex
ENCODING 234
SWIDTH 560 0
DWIDTH 19 0
BBX 18 23 0 0
BITMAP
001C00
007E00
01FF00
03E780
018300
000000
003E00
03FF80
0FFFC0
1F87C0
3F07C0
7E0FC0
7E3F80
FFFF00
FFF000
FC0000
FC0000
FC0300
7E0780
7F1F80
3FFE00
1FFC00
07F000
ENDCHAR

STARTCHAR edieresis
ENCODING 235
SWIDTH 560 0
DWIDTH 19 0
BBX 18 23 0 0
BITMAP
030300
078780
0F8F80
0F0F00
060600
000000
003E00
03FF80
0FFFC0
1F87C0
3F07C0
7E0FC0
7E3F80
FFFF00
FFF000
FC0000
FC0000
FC0300
7E0780
7F1F80
3FFE00
1FFC00
07F000
ENDCHAR

STARTCHAR igrave
ENCODING 236
SWIDTH 380 0
DWIDTH 11 0
BBX 11 24 0 0
BITMAP
3800
7C00
7E00
3F00
0F80
0300
0000
0780
FF00
FF00
FF00
3F00
3F00
3F00
3E00
3E00
7E00
7E00
7E00
7E00
7FC0
7FE0
7F80
1E00
ENDCHAR

STARTCHAR iacute
ENCODING 237
SWIDTH 380 0
DWIDTH 11 0
BBX 11 24 0 0
BITMAP
0700
0F80
1F80
3F00
7C00
3000
0000
0780
FF00
FF00
FF00
3F00
3F00
3F00
3E00
3E00
7E00
7E00
7E00
7E00
7FC0
7FE0
7F80
1E00
ENDCHAR

STARTCHAR icircumflex
ENCODING 238
SWIDTH 380 0
DWIDTH 11 0
BBX 11 23 0 0
BITMAP
0700
1F80
7FC0
F9E0
60C0
0000
0780
FF00
FF00
FF00
3F00
3F00
3F00
3E00
3E00
7E00
7E00
7E00
7E00
7FC0
7FE0
7F80
1E00
ENDCHAR

STARTCHAR idieresis
ENCODING 239
SWIDTH 380 0
DWIDTH 11 0
BBX 13 23 -1 0
BITMAP
3030
7878
F8F8
F0F0
6060
0000
03C0
7F80
7F80
7F80
1F80
1F80
1F80
1F00
1F00
3F00
3F00
3F00
3F00
3FE0
3FF0
3FC0
0F00
ENDCHAR

STARTCHAR eth
ENCODING 240
SWIDTH 600 0
DWIDTH 20 0
BBX 20 25 0 0
BITMAP
002000
00F800
00FC60
007FF0
007FC0
07FF00
07FF80
060F80
01FFC0
07FFC0
0FFFC0
1F8FC0
3F07E0
7E07E0
7E07E0
7E07E0
FC07E0
FC0FC0
FC0FC0
FC0FC0
7C1F80
7E3F00
7FFE00
1FFC00
07F000
ENDCHAR

STARTCHAR ntilde
ENCODING 241
SWIDTH 680 0
DWIDTH 21 0
BBX 21 22 0 0
BITMAP
03C600
07FF00
0FFE00
063C00
000000
038F00
7FFFC0
FFFFE0
FFFFE0
3F87E0
3F07E0
3F07C0
3E07C0
3E07C0
3E0FC0
7E0FC0
7E0F80
7E0F80
7C0FF8
7C0FF8
7C0FF0
7C03C0
ENDCHAR

STARTCHAR ograve
ENCODING 242
SWIDTH 600 0
DWIDTH 20 0
BBX 19 24 0 0
BITMAP
038000
07C000
07E000
03F000
00F800
003000
000000
01FC00
07FF00
0FFFC0
1F8FC0
3F07C0
7E07E0
7E07E0
7E07E0
FC07E0
FC0FC0
FC0FC0
FC0FC0
7C1F80
7E3F00
7FFE00
1FFC00
07F000
ENDCHAR

STARTCHAR oacute
ENCODING 243
SWIDTH 600 0
DWIDTH 20 0
BBX 19 24 0 0
BITMAP
001C00
003E00
007E00
00FC00
01F000
00C000
000000
01FC00
07FF00
0FFFC0
1F8FC0
3F07C0
7E07E0
7E07E0
7E07E0
FC07E0
FC0FC0
FC0FC0
FC0FC0
7C1F80
7E3F00
7FFE00
1FFC00
07F000
ENDCHAR

STARTCHAR ocircumflex
ENCODING 244
SWIDTH 600 0
DWIDTH 20 0
BBX 19 23 0 0
BITMAP
001C00
007E00
01FF00
03E780
018300
000000
01FC00
07FF00
0FFFC0
1F8FC0
3F07C0
7E07E0
7E07E0
7E07E0
FC07E0
FC0FC0
FC0FC0
FC0FC0
7C1F80
7E3F00
7FFE00
1FFC00
07F000
ENDCHAR

STARTCHAR otilde
ENCODING 245
SWIDTH 600 0
DWIDTH 20 0
BBX 19 22 0 0
BITMAP
01E300
03FF80
07FF00
031E00
000000
01FC00
07FF00
0FFFC0
1F8FC0
3F07C0
7E07E0
7E07E0
7E07E0
FC07E0
FC0FC0
FC0FC0
FC0FC0
7C1F80
7E3F00
7FFE00
1FFC00
07F000
ENDCHAR

STARTCHAR odieresis
ENCODING 246
SWIDTH 600 0
DWIDTH 20 0
BBX 19 23 0 0
BITMAP
030300
078780
0F8F80
0F0F00
060600
000000
01FC00
07FF00
0FFFC0
1F8FC0
3F07C0
7E07E0
7E07E0
7E07E0
FC07E0
FC0FC0
FC0FC0
FC0FC0
7C1F80
7E3F00
7FFE00
1FFC00
07F000
ENDCHAR

STARTCHAR divide
ENCODING 247
SWIDTH 600 0
DWIDTH 20 0
BBX 17 16 3 1
BITMAP
01C000
03E000
03E000
03E000
03C000
000000
FFFF80
FFFF80
FFFF80
FFFF80
000000
01C000
03E000
03E000
03E000
03C000
ENDCHAR

STARTCHAR oslash
ENCODING 248
SWIDTH 600 0
DWIDTH 20 0
BBX 20 21 -1 -2
BITMAP
000030
000070
00FEE0
03FFC0
07FFE0
0FC7E0
1F87F0
3F0FF0
3F1BF0
7F33F0
7E73F0
7EE7F0
7FC7E0
7F87E0
7F0FC0
3F1F80
1FFF00
3FFE00
73F800
600000
C00000
ENDCHAR

STARTCHAR ugrave
ENCODING 249
SWIDTH 680 0
DWIDTH 21 0
BBX 21 24 0 0
BITMAP
01C000
03E000
03F000
01F800
007C00
001800
000000
0703E0
FF07E0
FF07E0
FF07C0
3E07C0
3E07C0
3E0FC0
3E0FC0
7E0FC0
7E0F80
7C0F80
7C0F80
7E3F80
7FFFF0
7FFFF8
3FCFF0
1F0380
ENDCHAR

STARTCHAR uacute
ENCODING 250
SWIDTH 680 0
DWIDTH 21 0
BBX 21 24 0 0
BITMAP
000E00
001F00
003F00
007E00
00F800
006000
000000
0703E0
FF07E0
FF07E0
FF07C0
3E07C0
3E07C0
3E0FC0
3E0FC0
7E0FC0
7E0F80
7C0F80
7C0F80
7E3F80
7FFFF0
7FFFF8
3FCFF0
1F0380
ENDCHAR

STARTCHAR ucircumflex
ENCODING 251
SWIDTH 680 0
DWIDTH 21 0
BBX 21 23 0 0
BITMAP
003800
00FC00
03FE00
07CF00
030600
000000
0703E0
FF07E0
FF07E0
FF07C0
3E07C0
3E07C0
3E0FC0
3E0FC0
7E0FC0
7E0F80
7C0F80
7C0F80
7E3F80
7FFFF0
7FFFF8
3FCFF0
1F0380
ENDCHAR

STARTCHAR udieresis
ENCODING 252
SWIDTH 680 0
DWIDTH 21 0
BBX 21 23 0 0
BITMAP
018180
03C3C0
07C7C0
078780
030300
000000
0703E0
FF07E0
FF07E0
FF07C0
3E07C0
3E07C0
3E0FC0
3E0FC0
7E0FC0
7E0F80
7C0F80
7C0F80
7E3F80
7FFFF0
7FFFF8
3FCFF0
1F0380
ENDCHAR

STARTCHAR yacute
ENCODING 253
SWIDTH 600 0
DWIDTH 20 0
BBX 21 31 -2 -7
BITMAP
000700
000F80
001F80
003F00
007C00
003000
000000
03C1F8
3FC1F8
3FC1F0
3FC1F0
0FC1F0
0F81F0
0F83F0
0F83F0
1F83E0
1F83E0
1F83E0
1F07E0
1F8FE0
1FFFC0
1FFFC0
1FF7C0
07CFC0
000FC0
780F80
F81F80
FC7F00
FFFE00
7FFC00
1FE000
ENDCHAR

STARTCHAR thorn
ENCODING 254
SWIDTH 660 0
DWIDTH 22 0
BBX 24 32 -3 -7
BITMAP
000C00
003C00
03FC00
03F800
07F800
01F800
00F800
01F800
01F9F0
01F7FC
01FFFC
01FE7E
03F83F
03F83F
03F03F
03F03F
03F03F
03E07F
07E07E
07E07E
07C0FC
07E1F8
07FFF0
0FFFE0
0FDF80
0F8000
0F8000
0F8000
1F8000
7FF000
7FF000
FFF000
ENDCHAR

STARTCHAR ydieresis
ENCODING 255
SWIDTH 600 0
DWIDTH 20 0
BBX 21 30 -2 -7
BITMAP
00C0C0
01E1E0
03E3E0
03C3C0
018180
000000
03C1F8
3FC1F8
3FC1F0
3FC1F0
0FC1F0
0F81F0
0F83F0
0F83F0
1F83E0
1F83E0
1F83E0
1F07E0
1F8FE0
1FFFC0
1FFFC0
1FF7C0
07CFC0
000FC0
780F80
F81F80
FC7F00
FFFE00
7FFC00
1FE000
ENDCHAR
ENDFONT
